<mxfile host="app.diagrams.net" agent="Mozilla/5.0 (Windows NT 10.0; Win64; x64) AppleWebKit/537.36 (KHTML, like Gecko) Chrome/132.0.0.0 Safari/537.36 Edg/132.0.0.0" version="26.0.11">
  <diagram name="Page-1" id="ea3BYg5kkZz85_nxFFSd">
    <mxGraphModel dx="466" dy="790" grid="1" gridSize="10" guides="1" tooltips="1" connect="1" arrows="1" fold="1" page="1" pageScale="1" pageWidth="850" pageHeight="1100" math="0" shadow="0">
      <root>
        <mxCell id="0" />
        <mxCell id="1" parent="0" />
        <mxCell id="6qJ5hBOuBCIxMAqUF8FC-1" value="" style="rounded=0;whiteSpace=wrap;html=1;fillColor=#bac8d3;strokeColor=#23445d;" vertex="1" parent="1">
          <mxGeometry x="89" y="320" width="531" height="360" as="geometry" />
        </mxCell>
        <mxCell id="6qJ5hBOuBCIxMAqUF8FC-2" value="" style="rounded=0;whiteSpace=wrap;html=1;fillColor=#dae8fc;strokeColor=#6c8ebf;" vertex="1" parent="1">
          <mxGeometry x="110" y="356" width="490" height="300" as="geometry" />
        </mxCell>
        <mxCell id="6qJ5hBOuBCIxMAqUF8FC-3" value="Flight Software" style="rounded=1;whiteSpace=wrap;html=1;fillColor=#1ba1e2;strokeColor=#006EAF;fontStyle=1;fontColor=#ffffff;" vertex="1" parent="1">
          <mxGeometry x="295" y="493" width="120" height="60" as="geometry" />
        </mxCell>
        <mxCell id="6qJ5hBOuBCIxMAqUF8FC-4" value="NOS Server&lt;br&gt;Time Sync" style="rounded=1;whiteSpace=wrap;html=1;fillColor=#1ba1e2;strokeColor=#006EAF;fontStyle=1;fontColor=#ffffff;spacingBottom=18;" vertex="1" parent="1">
          <mxGeometry x="364" y="365" width="120" height="60" as="geometry" />
        </mxCell>
        <mxCell id="6qJ5hBOuBCIxMAqUF8FC-5" value="" style="endArrow=none;html=1;rounded=0;fillColor=#647687;strokeColor=#314354;strokeWidth=5;" edge="1" parent="1">
          <mxGeometry width="50" height="50" relative="1" as="geometry">
            <mxPoint x="355" y="460" as="sourcePoint" />
            <mxPoint x="491" y="460" as="targetPoint" />
            <Array as="points" />
          </mxGeometry>
        </mxCell>
        <mxCell id="6qJ5hBOuBCIxMAqUF8FC-6" value="" style="endArrow=blockThin;startArrow=blockThin;html=1;rounded=0;exitX=0.5;exitY=0;exitDx=0;exitDy=0;fillColor=#647687;strokeColor=#314354;strokeWidth=3;startFill=1;endFill=1;entryX=0.5;entryY=1;entryDx=0;entryDy=0;" edge="1" parent="1" source="6qJ5hBOuBCIxMAqUF8FC-24" target="6qJ5hBOuBCIxMAqUF8FC-3">
          <mxGeometry width="50" height="50" relative="1" as="geometry">
            <mxPoint x="240" y="523" as="sourcePoint" />
            <mxPoint x="350" y="450" as="targetPoint" />
          </mxGeometry>
        </mxCell>
        <mxCell id="6qJ5hBOuBCIxMAqUF8FC-7" value="" style="endArrow=blockThin;startArrow=blockThin;html=1;rounded=0;exitX=0.5;exitY=0;exitDx=0;exitDy=0;fillColor=#647687;strokeColor=#314354;strokeWidth=3;startFill=1;endFill=1;" edge="1" parent="1" source="6qJ5hBOuBCIxMAqUF8FC-3">
          <mxGeometry width="50" height="50" relative="1" as="geometry">
            <mxPoint x="265" y="533" as="sourcePoint" />
            <mxPoint x="355" y="460" as="targetPoint" />
          </mxGeometry>
        </mxCell>
        <mxCell id="6qJ5hBOuBCIxMAqUF8FC-8" value="" style="endArrow=blockThin;startArrow=blockThin;html=1;rounded=0;exitX=0.5;exitY=0;exitDx=0;exitDy=0;fillColor=#647687;strokeColor=#314354;strokeWidth=3;startFill=1;endFill=1;" edge="1" parent="1">
          <mxGeometry width="50" height="50" relative="1" as="geometry">
            <mxPoint x="424" y="460" as="sourcePoint" />
            <mxPoint x="424" y="427" as="targetPoint" />
          </mxGeometry>
        </mxCell>
        <mxCell id="6qJ5hBOuBCIxMAqUF8FC-9" value="&lt;b&gt;&lt;font&gt;TCP / IP&lt;/font&gt;&lt;/b&gt;" style="text;html=1;align=center;verticalAlign=middle;resizable=0;points=[];autosize=1;strokeColor=none;fillColor=none;fontSize=10;fontColor=#000000;textShadow=1;" vertex="1" parent="1">
          <mxGeometry x="390" y="555" width="60" height="30" as="geometry" />
        </mxCell>
        <mxCell id="6qJ5hBOuBCIxMAqUF8FC-10" value="&lt;b&gt;Virtual Machine&lt;/b&gt;" style="text;html=1;align=center;verticalAlign=middle;resizable=0;points=[];autosize=1;strokeColor=none;fillColor=none;" vertex="1" parent="1">
          <mxGeometry x="120" y="508" width="110" height="30" as="geometry" />
        </mxCell>
        <mxCell id="6qJ5hBOuBCIxMAqUF8FC-11" value="&lt;b&gt;NOS Engine&lt;/b&gt;" style="text;html=1;align=center;verticalAlign=middle;resizable=0;points=[];autosize=1;strokeColor=none;fillColor=none;" vertex="1" parent="1">
          <mxGeometry x="380" y="460" width="90" height="30" as="geometry" />
        </mxCell>
        <mxCell id="6qJ5hBOuBCIxMAqUF8FC-12" value="&lt;b&gt;Host Computer&lt;/b&gt;" style="text;html=1;align=center;verticalAlign=middle;resizable=0;points=[];autosize=1;strokeColor=none;fillColor=none;" vertex="1" parent="1">
          <mxGeometry x="89" y="650" width="110" height="30" as="geometry" />
        </mxCell>
        <mxCell id="6qJ5hBOuBCIxMAqUF8FC-13" value="" style="rounded=1;whiteSpace=wrap;html=1;fillColor=#1ba1e2;fontColor=#ffffff;strokeColor=#006EAF;" vertex="1" parent="1">
          <mxGeometry x="118" y="367" width="20" height="20" as="geometry" />
        </mxCell>
        <mxCell id="6qJ5hBOuBCIxMAqUF8FC-14" value="Docker Containers" style="text;html=1;align=center;verticalAlign=middle;resizable=0;points=[];autosize=1;strokeColor=none;fillColor=none;" vertex="1" parent="1">
          <mxGeometry x="138" y="362" width="120" height="30" as="geometry" />
        </mxCell>
        <mxCell id="6qJ5hBOuBCIxMAqUF8FC-15" value="" style="rounded=1;whiteSpace=wrap;html=1;fillColor=#647687;fontColor=#ffffff;strokeColor=#314354;" vertex="1" parent="1">
          <mxGeometry x="118" y="396" width="20" height="20" as="geometry" />
        </mxCell>
        <mxCell id="6qJ5hBOuBCIxMAqUF8FC-16" value="Bridged Docker / Host Networks" style="text;html=1;align=center;verticalAlign=middle;resizable=0;points=[];autosize=1;strokeColor=none;fillColor=none;" vertex="1" parent="1">
          <mxGeometry x="138" y="391" width="190" height="30" as="geometry" />
        </mxCell>
        <mxCell id="6qJ5hBOuBCIxMAqUF8FC-17" value="" style="group" vertex="1" connectable="0" parent="1">
          <mxGeometry x="425" y="485" width="128" height="69" as="geometry" />
        </mxCell>
        <mxCell id="6qJ5hBOuBCIxMAqUF8FC-18" value="" style="rounded=1;whiteSpace=wrap;html=1;fillColor=#1ba1e2;strokeColor=#006EAF;fontStyle=1;fontColor=#ffffff;" vertex="1" parent="6qJ5hBOuBCIxMAqUF8FC-17">
          <mxGeometry x="8" width="120" height="60" as="geometry" />
        </mxCell>
        <mxCell id="6qJ5hBOuBCIxMAqUF8FC-19" value="" style="rounded=1;whiteSpace=wrap;html=1;fillColor=#1ba1e2;strokeColor=#006EAF;fontStyle=1;fontColor=#ffffff;" vertex="1" parent="6qJ5hBOuBCIxMAqUF8FC-17">
          <mxGeometry x="4" y="4" width="120" height="60" as="geometry" />
        </mxCell>
        <mxCell id="6qJ5hBOuBCIxMAqUF8FC-20" value="Component&lt;br&gt;Simulators&lt;br&gt;..." style="rounded=1;whiteSpace=wrap;html=1;fillColor=#1ba1e2;strokeColor=#006EAF;fontStyle=1;fontColor=#ffffff;" vertex="1" parent="6qJ5hBOuBCIxMAqUF8FC-17">
          <mxGeometry y="9" width="120" height="60" as="geometry" />
        </mxCell>
        <mxCell id="6qJ5hBOuBCIxMAqUF8FC-21" value="" style="endArrow=blockThin;startArrow=blockThin;html=1;rounded=0;fillColor=#647687;strokeColor=#314354;strokeWidth=3;startFill=1;endFill=1;exitX=0.5;exitY=1;exitDx=0;exitDy=0;entryX=0.469;entryY=0.021;entryDx=0;entryDy=0;entryPerimeter=0;" edge="1" parent="1">
          <mxGeometry width="50" height="50" relative="1" as="geometry">
            <mxPoint x="489" y="554" as="sourcePoint" />
            <mxPoint x="489.28" y="587.26" as="targetPoint" />
          </mxGeometry>
        </mxCell>
        <mxCell id="6qJ5hBOuBCIxMAqUF8FC-22" value="" style="endArrow=blockThin;startArrow=blockThin;html=1;rounded=0;exitX=0.5;exitY=0;exitDx=0;exitDy=0;fillColor=#647687;strokeColor=#314354;strokeWidth=3;startFill=1;endFill=1;" edge="1" parent="1">
          <mxGeometry width="50" height="50" relative="1" as="geometry">
            <mxPoint x="490" y="493" as="sourcePoint" />
            <mxPoint x="490" y="460" as="targetPoint" />
          </mxGeometry>
        </mxCell>
        <mxCell id="6qJ5hBOuBCIxMAqUF8FC-23" value="" style="group" vertex="1" connectable="0" parent="1">
          <mxGeometry x="295" y="586" width="120" height="60" as="geometry" />
        </mxCell>
        <mxCell id="6qJ5hBOuBCIxMAqUF8FC-24" value="Ground &lt;br&gt;Station" style="rounded=1;whiteSpace=wrap;html=1;fillColor=#1ba1e2;strokeColor=#006EAF;fontStyle=1;fontColor=#ffffff;align=center;spacingLeft=25;" vertex="1" parent="6qJ5hBOuBCIxMAqUF8FC-23">
          <mxGeometry width="120" height="60" as="geometry" />
        </mxCell>
        <mxCell id="6qJ5hBOuBCIxMAqUF8FC-25" value="" style="fontColor=#0066CC;verticalAlign=top;verticalLabelPosition=bottom;labelPosition=center;align=center;html=1;outlineConnect=0;fillColor=default;strokeColor=#6881B3;gradientColor=none;gradientDirection=north;strokeWidth=2;shape=mxgraph.networks.satellite_dish;" vertex="1" parent="6qJ5hBOuBCIxMAqUF8FC-23">
          <mxGeometry x="10" y="6.5" width="35" height="40" as="geometry" />
        </mxCell>
        <mxCell id="6qJ5hBOuBCIxMAqUF8FC-26" value="" style="group" vertex="1" connectable="0" parent="1">
          <mxGeometry x="429" y="586" width="120" height="60" as="geometry" />
        </mxCell>
        <mxCell id="6qJ5hBOuBCIxMAqUF8FC-27" value="Dynamics&lt;br&gt;42" style="rounded=1;whiteSpace=wrap;html=1;fillColor=#1ba1e2;strokeColor=#006EAF;fontStyle=1;fontColor=#ffffff;spacingRight=27;" vertex="1" parent="6qJ5hBOuBCIxMAqUF8FC-26">
          <mxGeometry width="120" height="60" as="geometry" />
        </mxCell>
        <mxCell id="6qJ5hBOuBCIxMAqUF8FC-28" value="" style="shape=image;html=1;verticalAlign=top;verticalLabelPosition=bottom;labelBackgroundColor=#ffffff;imageAspect=0;aspect=fixed;image=https://cdn2.iconfinder.com/data/icons/crystalproject/128x128/filesystems/Globe.png" vertex="1" parent="6qJ5hBOuBCIxMAqUF8FC-26">
          <mxGeometry x="76" y="12" width="40" height="40" as="geometry" />
        </mxCell>
        <mxCell id="6qJ5hBOuBCIxMAqUF8FC-29" value="&lt;b&gt;&lt;font&gt;Files&lt;/font&gt;&lt;/b&gt;" style="text;html=1;align=center;verticalAlign=middle;resizable=0;points=[];autosize=1;strokeColor=none;fillColor=none;fontSize=10;fontColor=#000000;textShadow=1;" vertex="1" parent="1">
          <mxGeometry x="486" y="555" width="50" height="30" as="geometry" />
        </mxCell>
        <mxCell id="6qJ5hBOuBCIxMAqUF8FC-30" value="" style="image;sketch=0;aspect=fixed;html=1;points=[];align=center;fontSize=12;image=img/lib/mscae/Clock.svg;" vertex="1" parent="1">
          <mxGeometry x="414" y="401" width="20" height="20" as="geometry" />
        </mxCell>
        <mxCell id="6qJ5hBOuBCIxMAqUF8FC-31" value="" style="endArrow=blockThin;startArrow=blockThin;html=1;rounded=0;fillColor=#647687;strokeColor=#314354;strokeWidth=3;startFill=1;endFill=1;entryX=0.999;entryY=0.436;entryDx=0;entryDy=0;entryPerimeter=0;exitX=1.001;exitY=0.403;exitDx=0;exitDy=0;exitPerimeter=0;" edge="1" parent="1" source="6qJ5hBOuBCIxMAqUF8FC-27" target="6qJ5hBOuBCIxMAqUF8FC-4">
          <mxGeometry width="50" height="50" relative="1" as="geometry">
            <mxPoint x="533" y="368.8248630136985" as="sourcePoint" />
            <mxPoint x="486" y="391.9997260273973" as="targetPoint" />
            <Array as="points">
              <mxPoint x="570" y="610" />
              <mxPoint x="570" y="391" />
            </Array>
          </mxGeometry>
        </mxCell>
      </root>
    </mxGraphModel>
  </diagram>
</mxfile>
